<svg aria-hidden="true" focusable="false" data-prefix="fab" data-icon="favoritos" width="20" role="img" xmlns="http://www.w3.org/2000/svg" viewBox="0 0 30 30">
    <g id="Capa_2" data-name="Capa 2">
        <g id="BUENOS">
            <path class="cls-1" d="M8.87,21.58a1.22,1.22,0,1,0,1.21,1.22A1.21,1.21,0,0,0,8.87,21.58Z"></path>
            <path class="cls-1" d="M15,0A15,15,0,1,0,30,15,15,15,0,0,0,15,0ZM8.87,24.77a2,2,0,1,1,2-2A2,2,0,0,1,8.87,24.77ZM24.42,9a1.24,1.24,0,0,1-.68.72,16.25,16.25,0,0,0-5.22,4.58,1.27,1.27,0,0,0,.3,1.82,1.3,1.3,0,0,1-.37,2.33l-7,2a1.32,1.32,0,0,1-1.68-1.19c-.13-2.26-.31-4.6-.45-6.89a1.3,1.3,0,0,1,1.95-1.21l.39.23a1.25,1.25,0,0,0,1.48-.17l1.09-1,.15-.12A13,13,0,0,1,23,7.29a2.67,2.67,0,0,1,.67.08A1.27,1.27,0,0,1,24.42,9Z"></path>
        </g>
    </g>
</svg>
