<svg id="Layer_1" data-name="Layer 1" xmlns="http://www.w3.org/2000/svg" viewBox="0 0 136.49 158"><path d="M51.28,106.31H43.11a.86.86,0,0,1-.84-1l8-42.85a.85.85,0,0,1,.84-.71h2.18a.84.84,0,0,1,.77.5L66.84,88.14a.85.85,0,0,0,1.55,0L81.1,62.22a.84.84,0,0,1,.77-.5h2.2a.86.86,0,0,1,.84.69L93,105.26a.86.86,0,0,1-.83,1H84a.86.86,0,0,1-.85-.78L81.36,85a.85.85,0,0,0-1.6-.31l-10.5,20.71a.84.84,0,0,1-.75.46H66.65a.85.85,0,0,1-.76-.48L55.38,84.89a.85.85,0,0,0-1.61.32l-1.64,20.3A.85.85,0,0,1,51.28,106.31Z" transform="translate(0.1)"/><path d="M134.91,75.75A67.62,67.62,0,0,0,113,38.42l14.79-24.14h0a9.61,9.61,0,0,0-16.37-10h0L96.83,27.93A68.2,68.2,0,1,0,68.12,158a68.73,68.73,0,0,0,14-1.46,68.24,68.24,0,0,0,52.76-80.79ZM68.33,142.7a53,53,0,1,1,53-53A53,53,0,0,1,68.33,142.7Z" transform="translate(0.1)"/><rect x="46.1" y="113" width="44" height="3"/></svg>