<svg aria-hidden="true" focusable="false" data-prefix="fab" data-icon="compartir" width="20" role="img" xmlns="http://www.w3.org/2000/svg" viewBox="0 0 30 30">
    <path d="M23.16,8.14h0l-3.4-.88L16.5,6.42l-.2,0a.77.77,0,0,0-.58.26.78.78,0,0,0-.16.8l.14.42a1.73,1.73,0,0,1-.61,2l-1.32,1a12.5,12.5,0,0,0-4.14,7.59,1.78,1.78,0,0,0,0,.54.71.71,0,0,0,.27.47.81.81,0,0,0,.62.14.76.76,0,0,0,.51-.32,16.4,16.4,0,0,1,5.63-4.42,1.75,1.75,0,0,1,2.41.87.78.78,0,0,0,.71.48.75.75,0,0,0,.73-.44L23.7,9.29a.82.82,0,0,0,0-.7A.83.83,0,0,0,23.16,8.14Z"></path>
    <path d="M15,0A15,15,0,1,0,30,15,15,15,0,0,0,15,0ZM8,24a1.6,1.6,0,1,1,1.58-1.59A1.59,1.59,0,0,1,8,24ZM24.59,9.74l-3.22,6.47a1.8,1.8,0,0,1-3.26-.1.75.75,0,0,0-.43-.41.76.76,0,0,0-.61,0,15.45,15.45,0,0,0-5.28,4.12,1.72,1.72,0,0,1-1.13.72,1.63,1.63,0,0,1-.31,0,1.82,1.82,0,0,1-1.08-.36,1.73,1.73,0,0,1-.68-1.16,3,3,0,0,1,.05-.83,13.51,13.51,0,0,1,4.48-8.17l.16-.13,1.22-.9a.75.75,0,0,0,.26-.85l-.15-.42A1.75,1.75,0,0,1,15,6a1.77,1.77,0,0,1,1.77-.53L20,6.3l3.39.87a1.83,1.83,0,0,1,1.22,1A1.8,1.8,0,0,1,24.59,9.74Z"></path>
</svg>
